<?xml version="1.0" encoding="UTF-8" standalone="no"?>
<!-- Created with Inkscape (http://www.inkscape.org/) -->

<svg
   xmlns:dc="http://purl.org/dc/elements/1.1/"
   xmlns:cc="http://creativecommons.org/ns#"
   xmlns:rdf="http://www.w3.org/1999/02/22-rdf-syntax-ns#"
   xmlns:svg="http://www.w3.org/2000/svg"
   xmlns="http://www.w3.org/2000/svg"
   xmlns:sodipodi="http://sodipodi.sourceforge.net/DTD/sodipodi-0.dtd"
   xmlns:inkscape="http://www.inkscape.org/namespaces/inkscape"
   width="36.053001pt"
   height="26.340111pt"
   viewBox="0 0 45.06625 32.925142"
   id="svg2"
   version="1.1"
   inkscape:version="0.92.5 (2060ec1f9f, 2020-04-08)"
   sodipodi:docname="cat_community.svg"
   inkscape:export-filename="/home/jpyle/gh-page-da/img/docassemble-sq-125.png"
   inkscape:export-xdpi="31.440001"
   inkscape:export-ydpi="31.440001">
  <defs
     id="defs4" />
  <sodipodi:namedview
     id="base"
     pagecolor="#ffffff"
     bordercolor="#666666"
     borderopacity="1.0"
     inkscape:pageopacity="0"
     inkscape:pageshadow="2"
     inkscape:zoom="15.839192"
     inkscape:cx="19.325217"
     inkscape:cy="15.98226"
     inkscape:document-units="px"
     inkscape:current-layer="layer1"
     showgrid="false"
     fit-margin-top="2"
     fit-margin-left="1"
     fit-margin-right="1"
     fit-margin-bottom="2"
     inkscape:window-width="1854"
     inkscape:window-height="1136"
     inkscape:window-x="1986"
     inkscape:window-y="27"
     inkscape:window-maximized="1"
     units="pt" />
  <metadata
     id="metadata7">
    <rdf:RDF>
      <cc:Work
         rdf:about="">
        <dc:format>image/svg+xml</dc:format>
        <dc:type
           rdf:resource="http://purl.org/dc/dcmitype/StillImage" />
        <dc:title></dc:title>
      </cc:Work>
    </rdf:RDF>
  </metadata>
  <g
     inkscape:label="Layer 1"
     inkscape:groupmode="layer"
     id="layer1"
     transform="translate(-233.64992,-124.40302)">
    <path
       id="path4186"
       d="m 254.14516,138.67119 c -0.11791,-0.13553 -0.6264,-0.41552 -0.73018,-0.74181 -0.28367,-1.02722 -1.48712,-1.40404 -1.48712,-1.40404 l 0.12916,-1.87475 c -0.53384,0.16284 -1.27431,0.77705 -2.04862,1.55488 -0.12064,-0.0157 -0.24437,-0.0269 -0.36986,-0.0269 -0.88915,0 -1.68132,0.41419 -2.19696,1.05781 -1.12151,-0.92013 -2.34296,-1.56127 -4.32635,-1.49076 -4.19873,0.15043 -6.50046,2.98698 -7.25562,6.91057 -0.96566,0.7691 -1.00981,1.62574 -0.93583,2.0982 0.22462,1.44064 1.93052,2.48722 3.06986,2.76974 3.41994,0.84888 6.93498,-0.56639 8.95417,-3.60351 0.2709,-0.40703 0.16015,-0.95675 -0.24765,-1.22784 -0.40663,-0.2707 -0.95615,-0.15995 -1.22744,0.24689 -1.5998,2.40627 -4.36797,3.53129 -7.0527,2.865 -0.74606,-0.18531 -1.59961,-0.81751 -1.73166,-1.26578 l 0.22443,0.0568 h 6.1035 c 0.77879,-0.47401 1.47045,-1.13022 2.01495,-1.9493 0.43218,-0.65119 1.31419,-0.82778 1.96459,-0.39559 0.65023,0.43258 0.82818,1.31381 0.39561,1.9646 -0.0867,0.12954 -0.17659,0.2556 -0.26799,0.38029 h 3.68349 c -0.0144,-0.0297 0.0158,-0.0125 0.0158,-0.0125 -0.0306,-0.0459 -0.3739,-0.57876 -0.41205,-1.18446 -0.0726,-1.1467 0.6965,-2.09569 0.6965,-2.09569 l 0.009,-0.0114 c 2.4026,0.41978 2.9227,-1.08861 3.05574,-1.82247 0.0617,-0.33924 0.1849,-0.65564 -0.0257,-0.79778 z m -2.02114,-0.26354 c -0.18299,0 -0.33149,-0.14871 -0.33149,-0.33169 0,-0.18316 0.1485,-0.33168 0.33149,-0.33168 0.18338,0 0.3317,0.14871 0.3317,0.33168 0,0.18298 -0.14832,0.33169 -0.3317,0.33169 z"
       inkscape:connector-curvature="0"
       style="fill:#000000;fill-opacity:1" />
    <path
       style="fill:#000000;fill-opacity:1"
       inkscape:connector-curvature="0"
       d="m 258.22092,138.67119 c 0.11791,-0.13553 0.6264,-0.41552 0.73018,-0.74181 0.28367,-1.02722 1.48712,-1.40404 1.48712,-1.40404 l -0.12916,-1.87475 c 0.53384,0.16284 1.27431,0.77705 2.04862,1.55488 0.12064,-0.0157 0.24437,-0.0269 0.36986,-0.0269 0.88915,0 1.68132,0.41419 2.19696,1.05781 1.12151,-0.92013 2.34296,-1.56127 4.32635,-1.49076 4.19873,0.15043 6.50046,2.98698 7.25562,6.91057 0.96566,0.7691 1.00981,1.62574 0.93583,2.0982 -0.22462,1.44064 -1.93052,2.48722 -3.06986,2.76974 -3.41994,0.84888 -6.93498,-0.56639 -8.95417,-3.60351 -0.2709,-0.40703 -0.16015,-0.95675 0.24765,-1.22784 0.40663,-0.2707 0.95615,-0.15995 1.22744,0.24689 1.5998,2.40627 4.36797,3.53129 7.0527,2.865 0.74606,-0.18531 1.59961,-0.81751 1.73166,-1.26578 l -0.22443,0.0568 h -6.1035 c -0.77879,-0.47401 -1.47045,-1.13022 -2.01495,-1.9493 -0.43218,-0.65119 -1.31419,-0.82778 -1.96459,-0.39559 -0.65023,0.43258 -0.82818,1.31381 -0.39561,1.9646 0.0867,0.12954 0.17659,0.2556 0.26799,0.38029 h -3.68349 c 0.0144,-0.0297 -0.0158,-0.0125 -0.0158,-0.0125 0.0306,-0.0459 0.3739,-0.57876 0.41205,-1.18446 0.0726,-1.1467 -0.6965,-2.09569 -0.6965,-2.09569 l -0.009,-0.0114 c -2.4026,0.41978 -2.9227,-1.08861 -3.05574,-1.82247 -0.0617,-0.33924 -0.1849,-0.65564 0.0257,-0.79778 z m 2.02114,-0.26354 c 0.18299,0 0.33149,-0.14871 0.33149,-0.33169 0,-0.18316 -0.1485,-0.33168 -0.33149,-0.33168 -0.18338,0 -0.3317,0.14871 -0.3317,0.33168 0,0.18298 0.14832,0.33169 0.3317,0.33169 z"
       id="path850" />
    <path
       id="path852"
       d="m 257.84235,129.76342 c 0.0424,-0.0877 0.26154,-0.29718 0.27417,-0.48909 0.0184,-0.59951 0.57115,-0.93693 0.57115,-0.93693 l -0.28769,-1.02503 c 0.28454,0.0332 0.72553,0.2944 1.20284,0.64264 0.058,-0.0217 0.11814,-0.0411 0.18047,-0.0545 0.44158,-0.095 0.88439,0.0498 1.21721,0.35134 0.44728,-0.62972 0.97744,-1.11551 1.97088,-1.28842 2.10319,-0.36534 3.58455,0.9604 4.42745,3.05382 0.57129,0.32296 0.69537,0.79293 0.71497,1.06263 0.0602,0.82229 -0.66219,1.58454 -1.19434,1.86284 -1.59726,0.83589 -3.51171,0.42733 -4.87667,-1.03979 -0.18308,-0.19658 -0.19367,-0.51303 -0.0234,-0.70683 0.16968,-0.19346 0.45578,-0.19086 0.63904,0.006 1.08145,1.16238 2.59038,1.48991 3.84427,0.8338 0.34842,-0.18243 0.69693,-0.62397 0.70907,-0.88647 l -0.10468,0.0555 -3.03125,0.6523 c -0.44329,-0.17942 -0.86504,-0.46912 -1.23312,-0.86479 -0.2923,-0.31465 -0.75139,-0.31824 -1.02287,-0.009 -0.27134,0.30919 -0.25464,0.81651 0.0378,1.13089 0.0585,0.0625 0.11817,0.12277 0.17844,0.18209 l -1.82937,0.39367 c 0.003,-0.0179 -0.009,-0.005 -0.009,-0.005 0.01,-0.0288 0.11669,-0.36066 0.0634,-0.70037 -0.10066,-0.64316 -0.5958,-1.08682 -0.5958,-1.08682 l -0.005,-0.006 c -1.14316,0.48938 -1.58133,-0.29086 -1.73492,-0.68328 -0.0711,-0.1814 -0.17008,-0.34353 -0.0823,-0.44482 z m 0.97234,-0.36203 c 0.0909,-0.0196 0.14692,-0.11775 0.12508,-0.21923 -0.0218,-0.10149 -0.11326,-0.16792 -0.20418,-0.14836 -0.0911,0.0196 -0.14702,0.11777 -0.12518,0.21923 0.0218,0.1014 0.11317,0.16797 0.20428,0.14836 z"
       inkscape:connector-curvature="0"
       style="fill:#000000;fill-opacity:1;stroke-width:0.5365997" />
    <path
       style="fill:#000000;fill-opacity:1;stroke-width:0.5365997"
       inkscape:connector-curvature="0"
       d="m 253.99667,130.00017 c -0.0424,-0.0877 -0.26154,-0.29718 -0.27417,-0.48909 -0.0184,-0.59951 -0.57115,-0.93693 -0.57115,-0.93693 l 0.28769,-1.02503 c -0.28454,0.0332 -0.72553,0.2944 -1.20284,0.64264 -0.058,-0.0217 -0.11814,-0.0411 -0.18047,-0.0545 -0.44158,-0.095 -0.88439,0.0498 -1.21721,0.35134 -0.44728,-0.62972 -0.97744,-1.11551 -1.97088,-1.28842 -2.10319,-0.36534 -3.58455,0.9604 -4.42745,3.05382 -0.57129,0.32296 -0.69537,0.79293 -0.71497,1.06263 -0.0602,0.82229 0.66219,1.58454 1.19434,1.86284 1.59726,0.83589 3.51171,0.42733 4.87667,-1.03979 0.18308,-0.19658 0.19367,-0.51303 0.0234,-0.70683 -0.16968,-0.19346 -0.45578,-0.19086 -0.63904,0.006 -1.08145,1.16238 -2.59038,1.48991 -3.84427,0.8338 -0.34842,-0.18243 -0.69693,-0.62397 -0.70907,-0.88647 l 0.10468,0.0555 3.03125,0.6523 c 0.44329,-0.17942 0.86504,-0.46912 1.23312,-0.86479 0.2923,-0.31465 0.75139,-0.31824 1.02287,-0.009 0.27134,0.30919 0.25464,0.81651 -0.0378,1.13089 -0.0585,0.0625 -0.11817,0.12277 -0.17844,0.18209 l 1.82937,0.39367 c -0.003,-0.0179 0.009,-0.005 0.009,-0.005 -0.01,-0.0288 -0.11669,-0.36066 -0.0634,-0.70037 0.10066,-0.64316 0.5958,-1.08682 0.5958,-1.08682 l 0.005,-0.006 c 1.14316,0.48938 1.58133,-0.29086 1.73492,-0.68328 0.0711,-0.1814 0.17008,-0.34353 0.0823,-0.44482 z m -0.97234,-0.36203 c -0.0909,-0.0196 -0.14692,-0.11775 -0.12508,-0.21923 0.0218,-0.10149 0.11326,-0.16792 0.20418,-0.14836 0.0911,0.0196 0.14702,0.11777 0.12518,0.21923 -0.0218,0.1014 -0.11317,0.16797 -0.20428,0.14836 z"
       id="path854" />
    <path
       id="path856"
       d="m 254.07726,148.12802 c -0.0753,-0.0618 -0.36212,-0.15996 -0.45413,-0.32885 -0.26832,-0.53643 -0.91164,-0.6107 -0.91164,-0.6107 l -0.16909,-1.05112 c -0.24433,0.14956 -0.53497,0.57172 -0.82205,1.08814 -0.0617,0.005 -0.12448,0.0123 -0.18668,0.0263 -0.44067,0.0991 -0.78182,0.41638 -0.95735,0.82977 -0.67028,-0.38385 -1.35537,-0.60227 -2.32965,-0.34226 -2.06231,0.55112 -2.85046,2.37618 -2.7369,4.63007 -0.38299,0.53291 -0.29836,1.01156 -0.20295,1.26458 0.29048,0.77163 1.26608,1.1603 1.8659,1.18955 1.8006,0.0883 3.36679,-1.08602 3.98994,-2.99055 0.0837,-0.25527 -0.0395,-0.54694 -0.27542,-0.65138 -0.23521,-0.10438 -0.4938,0.0181 -0.57751,0.27365 -0.49373,1.50894 -1.72586,2.43954 -3.13934,2.37028 -0.39281,-0.0194 -0.89446,-0.27384 -1.01565,-0.50701 l 0.11831,0.006 3.02512,-0.68017 c 0.32705,-0.34891 0.58826,-0.78887 0.75629,-1.30249 0.13325,-0.40827 0.54844,-0.60422 0.92464,-0.43747 0.37605,0.16675 0.57382,0.63423 0.44033,1.04232 -0.0269,0.0813 -0.0557,0.16103 -0.0855,0.24017 l 1.82567,-0.41048 c -0.0102,-0.015 0.006,-0.008 0.006,-0.008 -0.0212,-0.0219 -0.25729,-0.27838 -0.3515,-0.60908 -0.17857,-0.62602 0.0846,-1.23653 0.0846,-1.23653 l 0.002,-0.008 c 1.24299,-0.0356 1.31323,-0.9277 1.28794,-1.34835 -0.0116,-0.19449 0.0102,-0.38319 -0.112,-0.43829 z m -1.0345,0.0795 c -0.0907,0.0204 -0.18277,-0.0452 -0.20554,-0.14649 -0.0228,-0.10126 0.0323,-0.19995 0.12306,-0.22035 0.0909,-0.0204 0.18287,0.0452 0.20563,0.14645 0.0228,0.10118 -0.0322,0.19995 -0.12315,0.22039 z"
       inkscape:connector-curvature="0"
       style="fill:#000000;fill-opacity:1;stroke-width:0.5365997" />
    <path
       style="fill:#000000;fill-opacity:1;stroke-width:0.5365997"
       inkscape:connector-curvature="0"
       d="m 258.89534,148.06883 c 0.0753,-0.0618 0.36212,-0.15996 0.45413,-0.32885 0.26832,-0.53643 0.91164,-0.6107 0.91164,-0.6107 l 0.16909,-1.05112 c 0.24433,0.14956 0.53497,0.57172 0.82205,1.08814 0.0617,0.005 0.12448,0.0123 0.18668,0.0263 0.44067,0.0991 0.78182,0.41638 0.95735,0.82977 0.67028,-0.38385 1.35537,-0.60227 2.32965,-0.34226 2.06231,0.55112 2.85046,2.37618 2.7369,4.63007 0.38299,0.53291 0.29836,1.01156 0.20295,1.26458 -0.29048,0.77163 -1.26608,1.1603 -1.8659,1.18955 -1.8006,0.0883 -3.36679,-1.08602 -3.98994,-2.99055 -0.0837,-0.25527 0.0395,-0.54694 0.27542,-0.65138 0.23521,-0.10438 0.4938,0.0181 0.57751,0.27365 0.49373,1.50894 1.72586,2.43954 3.13934,2.37028 0.39281,-0.0194 0.89446,-0.27384 1.01565,-0.50701 l -0.11831,0.006 -3.02512,-0.68017 c -0.32705,-0.34891 -0.58826,-0.78887 -0.75629,-1.30249 -0.13325,-0.40827 -0.54844,-0.60422 -0.92464,-0.43747 -0.37605,0.16675 -0.57382,0.63423 -0.44033,1.04232 0.0269,0.0813 0.0557,0.16103 0.0855,0.24017 l -1.82567,-0.41048 c 0.0102,-0.015 -0.006,-0.008 -0.006,-0.008 0.0212,-0.0219 0.25729,-0.27838 0.3515,-0.60908 0.17857,-0.62602 -0.0846,-1.23653 -0.0846,-1.23653 l -0.002,-0.008 c -1.24299,-0.0356 -1.31323,-0.9277 -1.28794,-1.34835 0.0116,-0.19449 -0.0102,-0.38319 0.112,-0.43829 z m 1.0345,0.0795 c 0.0907,0.0204 0.18277,-0.0452 0.20554,-0.14649 0.0228,-0.10126 -0.0323,-0.19995 -0.12306,-0.22035 -0.0909,-0.0204 -0.18287,0.0452 -0.20563,0.14645 -0.0228,0.10118 0.0322,0.19995 0.12315,0.22039 z"
       id="path858" />
  </g>
</svg>
