<?xml version="1.0" encoding="UTF-8" standalone="no"?>
<!-- Created with Inkscape (http://www.inkscape.org/) -->

<svg
   xmlns:dc="http://purl.org/dc/elements/1.1/"
   xmlns:cc="http://creativecommons.org/ns#"
   xmlns:rdf="http://www.w3.org/1999/02/22-rdf-syntax-ns#"
   xmlns:svg="http://www.w3.org/2000/svg"
   xmlns="http://www.w3.org/2000/svg"
   xmlns:sodipodi="http://sodipodi.sourceforge.net/DTD/sodipodi-0.dtd"
   xmlns:inkscape="http://www.inkscape.org/namespaces/inkscape"
   width="16pt"
   height="16pt"
   viewBox="0 0 19.999999 20.000002"
   id="svg2"
   version="1.1"
   inkscape:version="0.92.5 (2060ec1f9f, 2020-04-08)"
   sodipodi:docname="cat_bug.svg"
   inkscape:export-filename="/home/jpyle/gh-page-da/img/docassemble-sq-125.png"
   inkscape:export-xdpi="31.440001"
   inkscape:export-ydpi="31.440001">
  <defs
     id="defs4">
    <inkscape:path-effect
       is_visible="true"
       id="path-effect888"
       effect="spiro" />
    <inkscape:path-effect
       is_visible="true"
       id="path-effect884"
       effect="spiro" />
    <inkscape:path-effect
       effect="spiro"
       id="path-effect880"
       is_visible="true" />
    <inkscape:path-effect
       effect="spiro"
       id="path-effect876"
       is_visible="true" />
    <inkscape:path-effect
       effect="spiro"
       id="path-effect872"
       is_visible="true" />
    <inkscape:path-effect
       effect="spiro"
       id="path-effect868"
       is_visible="true" />
    <inkscape:path-effect
       effect="spiro"
       id="path-effect860"
       is_visible="true" />
  </defs>
  <sodipodi:namedview
     id="base"
     pagecolor="#ffffff"
     bordercolor="#666666"
     borderopacity="1.0"
     inkscape:pageopacity="0"
     inkscape:pageshadow="2"
     inkscape:zoom="15.839192"
     inkscape:cx="0.2765491"
     inkscape:cy="18.008025"
     inkscape:document-units="px"
     inkscape:current-layer="layer1"
     showgrid="false"
     fit-margin-top="2"
     fit-margin-left="1"
     fit-margin-right="1"
     fit-margin-bottom="2"
     inkscape:window-width="1854"
     inkscape:window-height="1136"
     inkscape:window-x="1986"
     inkscape:window-y="27"
     inkscape:window-maximized="1"
     units="pt" />
  <metadata
     id="metadata7">
    <rdf:RDF>
      <cc:Work
         rdf:about="">
        <dc:format>image/svg+xml</dc:format>
        <dc:type
           rdf:resource="http://purl.org/dc/dcmitype/StillImage" />
        <dc:title></dc:title>
      </cc:Work>
    </rdf:RDF>
  </metadata>
  <g
     inkscape:label="Layer 1"
     inkscape:groupmode="layer"
     id="layer1"
     transform="translate(-234.58207,-131.20891)">
    <path
       id="path4186"
       d="m 254.14516,138.67119 c -0.11791,-0.13553 -0.6264,-0.41552 -0.73018,-0.74181 -0.28367,-1.02722 -1.48712,-1.40404 -1.48712,-1.40404 l 0.12916,-1.87475 c -0.53384,0.16284 -1.27431,0.77705 -2.04862,1.55488 -0.12064,-0.0157 -0.24437,-0.0269 -0.36986,-0.0269 -0.88915,0 -1.68132,0.41419 -2.19696,1.05781 -1.12151,-0.92013 -2.34296,-1.56127 -4.32635,-1.49076 -4.19873,0.15043 -6.50046,2.98698 -7.25562,6.91057 -0.96566,0.7691 -1.00981,1.62574 -0.93583,2.0982 0.22462,1.44064 1.93052,2.48722 3.06986,2.76974 3.41994,0.84888 6.93498,-0.56639 8.95417,-3.60351 0.2709,-0.40703 0.16015,-0.95675 -0.24765,-1.22784 -0.40663,-0.2707 -0.95615,-0.15995 -1.22744,0.24689 -1.5998,2.40627 -4.36797,3.53129 -7.0527,2.865 -0.74606,-0.18531 -1.59961,-0.81751 -1.73166,-1.26578 l 0.22443,0.0568 6.1035,0 c 0.77879,-0.47401 1.47045,-1.13022 2.01495,-1.9493 0.43218,-0.65119 1.31419,-0.82778 1.96459,-0.39559 0.65023,0.43258 0.82818,1.31381 0.39561,1.9646 -0.0867,0.12954 -0.17659,0.2556 -0.26799,0.38029 l 3.68349,0 c -0.0144,-0.0297 0.0158,-0.0125 0.0158,-0.0125 -0.0306,-0.0459 -0.3739,-0.57876 -0.41205,-1.18446 -0.0726,-1.1467 0.6965,-2.09569 0.6965,-2.09569 l 0.009,-0.0114 c 2.4026,0.41978 2.9227,-1.08861 3.05574,-1.82247 0.0617,-0.33924 0.1849,-0.65564 -0.0257,-0.79778 z m -2.02114,-0.26354 c -0.18299,0 -0.33149,-0.14871 -0.33149,-0.33169 0,-0.18316 0.1485,-0.33168 0.33149,-0.33168 0.18338,0 0.3317,0.14871 0.3317,0.33168 0,0.18298 -0.14832,0.33169 -0.3317,0.33169 z"
       inkscape:connector-curvature="0"
       style="fill:#000000;fill-opacity:1" />
    <path
       style="fill:none;stroke:#6d6d6d;stroke-width:0.28125;stroke-linecap:butt;stroke-linejoin:miter;stroke-miterlimit:4;stroke-dasharray:none;stroke-opacity:1"
       d="m 247.18925,138.72011 c -0.68127,-0.72994 -1.61608,-1.21859 -2.6043,-1.36134 -1.24447,-0.17976 -2.50532,0.1765 -3.6697,0.65108 -0.9028,0.36796 -1.78227,0.81347 -2.54511,1.42052 -0.35434,0.28197 -0.68447,0.60074 -0.9344,0.97837 -0.24993,0.37762 -0.41703,0.81807 -0.42694,1.2708 -8.6e-4,0.0394 -5.5e-4,0.0789 0,0.11838 0.007,0.47549 0.0462,0.95051 0.11838,1.42053"
       id="path858"
       inkscape:connector-curvature="0"
       inkscape:path-effect="#path-effect860"
       inkscape:original-d="m 247.18925,138.72011 c -0.86716,-0.43499 -1.73527,-0.9085 -2.6043,-1.36134 -0.86904,-0.45284 -2.44553,0.43311 -3.6697,0.65108 -1.22417,0.21796 -1.6958,0.94608 -2.54511,1.42052 -0.84931,0.47445 -0.90662,1.49851 -1.36134,2.24917 -0.45471,0.75066 9.4e-4,0.078 0,0.11838 -9.3e-4,0.0404 0.0799,0.94608 0.11838,1.42053"
       transform="translate(0.25233,-1.48373)" />
    <path
       style="fill:none;fill-opacity:1;stroke:#6d6d6d;stroke-width:0.28125;stroke-miterlimit:4;stroke-dasharray:none;stroke-dashoffset:0;stroke-opacity:1"
       d="m 250.0084,136.20547 c -0.32191,-0.36893 -0.54262,-0.8253 -0.63194,-1.30671 -0.0893,-0.48142 -0.047,-0.98659 0.12114,-1.44644 0.19886,-0.54385 0.57052,-1.01795 1.03092,-1.36918 0.46039,-0.35122 1.00693,-0.58218 1.57338,-0.70242 1.10649,-0.23487 2.29839,-0.0406 3.27309,0.53333 0.97469,0.57399 1.72262,1.52212 2.05389,2.60367"
       id="path870"
       inkscape:connector-curvature="0"
       inkscape:path-effect="#path-effect872"
       inkscape:original-d="m 250.0084,136.20547 c -0.16933,-0.87919 -0.33959,-1.83637 -0.5108,-2.75315 -0.1712,-0.91678 1.73714,-1.382 2.6043,-2.0716 0.86717,-0.6896 3.55226,2.09039 5.32698,3.137" />
    <path
       style="fill:none;fill-opacity:1;stroke:#6d6d6d;stroke-width:0.28125;stroke-miterlimit:4;stroke-dasharray:none;stroke-dashoffset:0;stroke-opacity:1"
       d="m 243.87468,135.93824 c 0.71238,0.50724 1.30498,1.18157 1.71647,1.95323 0.66975,1.25596 0.84261,2.76851 0.47351,4.1432"
       id="path874"
       inkscape:connector-curvature="0"
       inkscape:path-effect="#path-effect876"
       inkscape:original-d="m 243.87468,135.93824 c 0.55337,0.65014 1.14526,1.30122 1.71647,1.95323 0.57122,0.65201 0.31661,2.7612 0.47351,4.1432" />
    <path
       style="fill:none;fill-opacity:1;stroke:#6d6d6d;stroke-width:0.28125;stroke-miterlimit:4;stroke-dasharray:none;stroke-dashoffset:0;stroke-opacity:1"
       d="m 249.37923,144.28384 c 0.45342,-0.0543 0.92386,0.0454 1.31638,0.27874 0.39251,0.23339 0.70471,0.59913 0.8736,1.02341 0.14116,0.35463 0.1826,0.74834 0.11837,1.12458"
       id="path878"
       inkscape:connector-curvature="0"
       inkscape:path-effect="#path-effect880"
       inkscape:original-d="m 249.37923,144.28384 c 0.75066,0.45284 1.46092,0.86716 2.18998,1.30215 0.72905,0.43499 0.0798,0.74879 0.11837,1.12458"
       transform="translate(-0.41432037,-0.17756587)" />
    <path
       inkscape:original-d="m 249.37923,144.28384 c 0.75066,0.45284 1.46092,0.86716 2.18998,1.30215 0.72905,0.43499 0.0798,0.74879 0.11837,1.12458"
       inkscape:path-effect="#path-effect884"
       inkscape:connector-curvature="0"
       id="path882"
       d="m 249.37923,144.28384 c 0.45342,-0.0543 0.92386,0.0454 1.31638,0.27874 0.39251,0.23339 0.70471,0.59913 0.8736,1.02341 0.14116,0.35463 0.1826,0.74834 0.11837,1.12458"
       style="fill:none;fill-opacity:1;stroke:#6d6d6d;stroke-width:0.28125;stroke-miterlimit:4;stroke-dasharray:none;stroke-dashoffset:0;stroke-opacity:1"
       transform="translate(-7.6945212,-0.29594312)" />
    <path
       transform="translate(-12.037322,-0.26523909)"
       inkscape:original-d="m 249.37923,144.28384 c 0.75066,0.45284 1.46092,0.86716 2.18998,1.30215 0.72905,0.43499 0.0798,0.74879 0.11837,1.12458"
       inkscape:path-effect="#path-effect888"
       inkscape:connector-curvature="0"
       id="path886"
       d="m 249.37923,144.28384 c 0.45342,-0.0543 0.92386,0.0454 1.31638,0.27874 0.39251,0.23339 0.70471,0.59913 0.8736,1.02341 0.14116,0.35463 0.1826,0.74834 0.11837,1.12458"
       style="fill:none;fill-opacity:1;stroke:#6d6d6d;stroke-width:0.28125;stroke-miterlimit:4;stroke-dasharray:none;stroke-dashoffset:0;stroke-opacity:1" />
  </g>
</svg>
